<mxfile host="app.diagrams.net" agent="Mozilla/5.0 (Windows NT 10.0; Win64; x64) AppleWebKit/537.36 (KHTML, like Gecko) Chrome/130.0.0.0 Safari/537.36" version="24.8.3">
  <diagram id="C5RBs43oDa-KdzZeNtuy" name="Page-1">
    <mxGraphModel dx="733" dy="390" grid="1" gridSize="10" guides="1" tooltips="1" connect="1" arrows="1" fold="1" page="1" pageScale="1" pageWidth="827" pageHeight="1169" math="0" shadow="0">
      <root>
        <mxCell id="WIyWlLk6GJQsqaUBKTNV-0" />
        <mxCell id="WIyWlLk6GJQsqaUBKTNV-1" parent="WIyWlLk6GJQsqaUBKTNV-0" />
        <mxCell id="UJlpxPb_VIVPhjZ0gXnI-1" value="" style="edgeStyle=orthogonalEdgeStyle;rounded=0;orthogonalLoop=1;jettySize=auto;html=1;" edge="1" parent="WIyWlLk6GJQsqaUBKTNV-1" source="wPl9ztNtWe4EFn1BWEWF-0" target="wPl9ztNtWe4EFn1BWEWF-2">
          <mxGeometry relative="1" as="geometry" />
        </mxCell>
        <mxCell id="wPl9ztNtWe4EFn1BWEWF-0" value="Mulai" style="ellipse;whiteSpace=wrap;html=1;" parent="WIyWlLk6GJQsqaUBKTNV-1" vertex="1">
          <mxGeometry x="180" y="20" width="120" height="40" as="geometry" />
        </mxCell>
        <mxCell id="UJlpxPb_VIVPhjZ0gXnI-2" value="" style="edgeStyle=orthogonalEdgeStyle;rounded=0;orthogonalLoop=1;jettySize=auto;html=1;" edge="1" parent="WIyWlLk6GJQsqaUBKTNV-1" source="wPl9ztNtWe4EFn1BWEWF-2" target="wPl9ztNtWe4EFn1BWEWF-5">
          <mxGeometry relative="1" as="geometry" />
        </mxCell>
        <mxCell id="wPl9ztNtWe4EFn1BWEWF-2" value="i = 5" style="shape=parallelogram;perimeter=parallelogramPerimeter;whiteSpace=wrap;html=1;fixedSize=1;" parent="WIyWlLk6GJQsqaUBKTNV-1" vertex="1">
          <mxGeometry x="175" y="100" width="130" height="40" as="geometry" />
        </mxCell>
        <mxCell id="UJlpxPb_VIVPhjZ0gXnI-4" value="" style="edgeStyle=orthogonalEdgeStyle;rounded=0;orthogonalLoop=1;jettySize=auto;html=1;" edge="1" parent="WIyWlLk6GJQsqaUBKTNV-1" source="wPl9ztNtWe4EFn1BWEWF-5" target="UJlpxPb_VIVPhjZ0gXnI-3">
          <mxGeometry relative="1" as="geometry" />
        </mxCell>
        <mxCell id="wPl9ztNtWe4EFn1BWEWF-5" value="count = 10&lt;div&gt;i = start&lt;/div&gt;" style="rounded=0;whiteSpace=wrap;html=1;" parent="WIyWlLk6GJQsqaUBKTNV-1" vertex="1">
          <mxGeometry x="180" y="180" width="120" height="60" as="geometry" />
        </mxCell>
        <mxCell id="UJlpxPb_VIVPhjZ0gXnI-6" value="" style="edgeStyle=orthogonalEdgeStyle;rounded=0;orthogonalLoop=1;jettySize=auto;html=1;" edge="1" parent="WIyWlLk6GJQsqaUBKTNV-1" source="UJlpxPb_VIVPhjZ0gXnI-3" target="UJlpxPb_VIVPhjZ0gXnI-5">
          <mxGeometry relative="1" as="geometry" />
        </mxCell>
        <mxCell id="UJlpxPb_VIVPhjZ0gXnI-3" value="i %==0?" style="rhombus;whiteSpace=wrap;html=1;" vertex="1" parent="WIyWlLk6GJQsqaUBKTNV-1">
          <mxGeometry x="360" y="170" width="80" height="80" as="geometry" />
        </mxCell>
        <mxCell id="UJlpxPb_VIVPhjZ0gXnI-8" value="" style="edgeStyle=orthogonalEdgeStyle;rounded=0;orthogonalLoop=1;jettySize=auto;html=1;" edge="1" parent="WIyWlLk6GJQsqaUBKTNV-1" source="UJlpxPb_VIVPhjZ0gXnI-5" target="UJlpxPb_VIVPhjZ0gXnI-7">
          <mxGeometry relative="1" as="geometry" />
        </mxCell>
        <mxCell id="UJlpxPb_VIVPhjZ0gXnI-5" value="print = i" style="shape=parallelogram;perimeter=parallelogramPerimeter;whiteSpace=wrap;html=1;fixedSize=1;" vertex="1" parent="WIyWlLk6GJQsqaUBKTNV-1">
          <mxGeometry x="340" y="290" width="120" height="60" as="geometry" />
        </mxCell>
        <mxCell id="UJlpxPb_VIVPhjZ0gXnI-10" value="" style="edgeStyle=orthogonalEdgeStyle;rounded=0;orthogonalLoop=1;jettySize=auto;html=1;" edge="1" parent="WIyWlLk6GJQsqaUBKTNV-1" source="UJlpxPb_VIVPhjZ0gXnI-7" target="UJlpxPb_VIVPhjZ0gXnI-9">
          <mxGeometry relative="1" as="geometry" />
        </mxCell>
        <mxCell id="UJlpxPb_VIVPhjZ0gXnI-7" value="count = count + 1" style="rounded=0;whiteSpace=wrap;html=1;" vertex="1" parent="WIyWlLk6GJQsqaUBKTNV-1">
          <mxGeometry x="340" y="390" width="120" height="60" as="geometry" />
        </mxCell>
        <mxCell id="UJlpxPb_VIVPhjZ0gXnI-12" value="" style="edgeStyle=orthogonalEdgeStyle;rounded=0;orthogonalLoop=1;jettySize=auto;html=1;" edge="1" parent="WIyWlLk6GJQsqaUBKTNV-1" source="UJlpxPb_VIVPhjZ0gXnI-9" target="UJlpxPb_VIVPhjZ0gXnI-11">
          <mxGeometry relative="1" as="geometry" />
        </mxCell>
        <mxCell id="UJlpxPb_VIVPhjZ0gXnI-9" value="i = i + 1" style="rounded=0;whiteSpace=wrap;html=1;" vertex="1" parent="WIyWlLk6GJQsqaUBKTNV-1">
          <mxGeometry x="340" y="490" width="120" height="60" as="geometry" />
        </mxCell>
        <mxCell id="UJlpxPb_VIVPhjZ0gXnI-15" value="" style="edgeStyle=orthogonalEdgeStyle;rounded=0;orthogonalLoop=1;jettySize=auto;html=1;" edge="1" parent="WIyWlLk6GJQsqaUBKTNV-1" source="UJlpxPb_VIVPhjZ0gXnI-11" target="UJlpxPb_VIVPhjZ0gXnI-14">
          <mxGeometry relative="1" as="geometry" />
        </mxCell>
        <mxCell id="UJlpxPb_VIVPhjZ0gXnI-11" value="kembali ke count &amp;lt; 10?" style="rhombus;whiteSpace=wrap;html=1;" vertex="1" parent="WIyWlLk6GJQsqaUBKTNV-1">
          <mxGeometry x="355" y="585" width="90" height="90" as="geometry" />
        </mxCell>
        <mxCell id="UJlpxPb_VIVPhjZ0gXnI-13" value="" style="endArrow=none;dashed=1;html=1;dashPattern=1 3;strokeWidth=2;rounded=0;exitX=0;exitY=0.5;exitDx=0;exitDy=0;" edge="1" parent="WIyWlLk6GJQsqaUBKTNV-1" source="UJlpxPb_VIVPhjZ0gXnI-11">
          <mxGeometry width="50" height="50" relative="1" as="geometry">
            <mxPoint x="190" y="290" as="sourcePoint" />
            <mxPoint x="240" y="240" as="targetPoint" />
            <Array as="points">
              <mxPoint x="240" y="630" />
            </Array>
          </mxGeometry>
        </mxCell>
        <mxCell id="UJlpxPb_VIVPhjZ0gXnI-14" value="selesai" style="ellipse;whiteSpace=wrap;html=1;" vertex="1" parent="WIyWlLk6GJQsqaUBKTNV-1">
          <mxGeometry x="340" y="710" width="120" height="40" as="geometry" />
        </mxCell>
      </root>
    </mxGraphModel>
  </diagram>
</mxfile>
